<svg xmlns="http://www.w3.org/2000/svg" viewBox="-115 118 128 128" xml:space="preserve" width="128" height="128"><path d="M-57.96 138.771c4.248 5.792 7.337 8.688 9.268 8.881.579 0 1.158-.193 1.544-.579 1.159-.965 1.352-2.896 0-5.406-.772-1.351-2.124-2.51-3.861-3.282-2.896-1.545-5.02-2.51-6.372-2.703-.386 0-.579 0-.965.386-.58.386-.386 1.352.386 2.703zM-38.267 148.039c3.862-2.51 7.53-5.213 10.812-8.11 2.703-2.316 4.827-3.668 5.986-4.44.965-.58 1.351-1.159 1.351-1.93 0-1.545-1.737-2.897-5.213-4.441-1.737-.773-3.282-1.159-4.247-.966-.966.193-1.159.772-.773 1.738.193 1.158 0 2.51-.772 4.247-.965 1.931-3.668 5.986-8.302 12.357-.193.386-.193.58-.193.772 0 .966.386 1.159 1.351.773zM-92.906 143.598c.193.772.772 1.738 1.93 2.703 3.283 2.896 5.986 5.599 8.11 7.916 1.158 1.158 2.317 1.544 3.861 1.544.773 0 1.545-.579 2.124-1.737.386-1.159.193-3.09-.386-5.792 0-.193-.193-.386-.193-.58-.965-1.93-3.862-3.668-8.302-5.212-3.475-1.159-5.6-1.545-6.565-1.159-.579.58-.579 1.352-.579 2.317zM4.981 223.916c-.193-.386-.965-.58-2.316-.58-27.03 1.352-50.199-1.544-69.506-8.302-8.302-3.282-13.708-4.633-16.411-4.247 1.351-.772 2.317-1.738 2.896-2.896 1.93-3.669.58-8.11-4.055-13.708-2.896-3.669-.579-8.495 6.758-14.48 1.737-1.352 1.93-2.897.386-4.248-1.545-1.352-3.861-2.703-6.758-4.055-1.737-1.158-4.054-.579-7.143 1.931-5.792 2.896-9.268 4.44-10.812 4.248-.58 0-.966.193-1.159.579-.193.193.193.579.773 1.158 2.896 1.545 6.95 1.159 12.163-1.158.58-.386 1.159-.193 1.93.386.387.386.58.772.773 1.158.386.966 0 2.124-.965 3.669-1.545 2.317-2.703 4.054-3.09 5.02-.579 1.737-.192 3.668 1.352 5.792 4.44 7.143 5.985 12.356 4.634 15.832-4.055-.194-7.723-.194-11.198.579-3.476.579-6.372.965-8.495.772-1.159-.193-1.738.386-1.738 1.352 0 .772 1.738 2.51 5.213 5.02 1.544.965 3.668.772 6.371-.58.58-.386 1.352-.965 2.51-1.351 4.827-1.931 10.233-1.738 16.025.193 11.391 3.668 22.396 7.916 33.208 12.936 7.53 3.282 12.55 5.406 15.446 6.37 3.282.966 6.95.773 11.005-.771 7.53-2.703 13.515-5.02 19.694-8.882 1.351-.386 2.703-1.158 2.51-1.737z"/><path d="M-68.386 159.237c.966.965 1.931 1.544 2.896 1.93 1.352.58 3.476.387 6.372-.386 5.985-1.544 10.233-2.51 12.742-2.896 0 .773-1.351 4.827-4.247 11.97-1.738.194-2.896.387-3.668.58a7.35 7.35 0 0 0-1.159-.965c-1.93-1.159-3.475-1.545-4.634-.966-.193.193-.386.386-.386.966 0 .965.386 1.737.966 2.51 1.737 3.475 2.123 11.584 1.158 24.52-.772 4.247-.965 7.53-.58 10.04.194 2.123.966 4.054 2.318 5.598.386.58.965.773 1.351.773.966 0 1.738-1.352 2.124-3.862.772-.772 7.53-1.544 20.466-2.124.965 1.352 1.93 2.51 2.703 3.669l4.247 6.371c.58.965 1.352 1.352 1.93 1.352.966 0 1.932-.966 2.897-2.51 1.93-3.09 2.703-6.95 2.317-11.392-.58-7.336-1.159-16.024-1.738-26.45 0-.966 0-1.931.386-2.703.193-.58.773-1.738 1.545-3.283.579-.965.579-1.737-.193-2.316-.58-.773-1.545-1.545-3.09-2.51-3.86-2.703-6.757-3.476-8.688-2.51-4.247 1.737-9.46 3.475-15.445 4.633 0 0 0-.193.193-.193.965-.965 1.737-1.737 2.317-2.51 1.351-1.544 2.316-2.703 3.282-3.282 1.737-1.351 1.158-3.282-1.738-5.792 7.53-1.351 16.99-2.124 28.768-2.51 4.247 0 6.757-.386 7.337-1.158.386-.773 0-1.738-1.352-2.703-4.054-2.51-7.144-3.476-9.46-2.896-10.233 2.317-27.224 5.406-51.164 9.267-1.738 0-1.931.58-.773 1.738zm35.525 10.619c1.931-.193 3.476-.193 4.441.579 1.545 1.158 2.124 9.653 1.738 25.1.193 4.247 0 6.95-.386 8.301-.387 1.545-1.159 1.931-2.703 1.159-.387-.773-1.352-1.738-3.283-2.896-.193 0-.193-.193-.386-.193-1.158-.58-3.089-.58-5.792.193-6.564 1.351-11.198 2.316-13.708 2.703v-9.268h.386c1.738.58 3.669.58 5.985.193 2.703-.386 6.372-.772 10.812-1.351 1.738-.193 2.703-.386 2.896-.58.58-.579.773-1.158.58-1.544-.58-.772-1.545-1.545-3.476-2.317-1.544-.386-5.406.193-11.584 1.352-2.124 0-4.054.193-5.599.579 0-2.51 0-5.213.193-8.11 1.159.387 2.896.387 5.213.387 5.6 0 10.426-.772 14.673-2.124.58-.579.58-.965.387-1.544a1.74 1.74 0 0 0-1.159-1.159c-1.158-.772-3.861-.772-8.109 0-5.406.966-9.074 1.545-11.005 1.545 0-2.317.193-4.634.386-7.144.386 0 6.95-1.158 19.5-3.861z"/></svg>