<?xml version="1.0" encoding="UTF-8" standalone="no"?>
<svg
   xmlns="http://www.w3.org/2000/svg"
   width="244.10199mm"
   height="122.21916mm"
   viewBox="0 0 244.10199 122.21916"
   version="1.1">
  <g>
    <path
       d="M 152.10799,2.670309 C 150.32645,0.889771 148.1881,0 145.68734,0 H 98.414045 c -2.500155,0 -4.640303,0.889771 -6.42084,2.670309 -1.78014,1.780935 -2.670309,3.920486 -2.670309,6.42084 v 61.818902 c 0,2.50075 0.890169,4.63871 2.670309,6.42024 1.780537,1.78094 3.920685,2.66971 6.42084,2.66971 h 47.273105 c 2.50075,0 4.6393,-0.88877 6.42084,-2.66971 1.78033,-1.78153 2.6711,-3.92068 2.6711,-6.42024 V 9.091348 c 0,-2.500553 -0.89276,-4.640701 -2.6711,-6.421039 z m -27.50032,72.614762 c -0.71902,0.71922 -1.57178,1.07883 -2.55707,1.07883 -0.9855,0 -1.83746,-0.35961 -2.55728,-1.07883 -0.71981,-0.72041 -1.07942,-1.57297 -1.07942,-2.55667 0,-0.9847 0.35961,-1.83865 1.07942,-2.55668 0.72062,-0.72041 1.57258,-1.08141 2.55728,-1.08141 0.98509,0 1.83785,0.3608 2.55707,1.08141 0.71922,0.71783 1.08022,1.57178 1.08022,2.55668 0,0.9837 -0.361,1.83566 -1.08022,2.55667 z m 22.89782,-11.648419 c 0,0.493145 -0.18109,0.91803 -0.53931,1.279033 -0.3608,0.361006 -0.78589,0.539516 -1.27903,0.539516 H 98.414045 c -0.492349,0 -0.918428,-0.17991 -1.278237,-0.539516 -0.35981,-0.35961 -0.539714,-0.785888 -0.539714,-1.279033 V 9.091348 c 0,-0.492548 0.179705,-0.918826 0.539714,-1.278436 0.360008,-0.360008 0.785888,-0.539714 1.278237,-0.539714 h 47.273105 c 0.49314,0 0.91803,0.179108 1.27903,0.539714 0.35961,0.35961 0.53931,0.785888 0.53931,1.278436 z"
       id="path827" />
    <path
       d="m 130.50229,41.317117 c -0.35826,-0.32087 -0.90869,-0.289565 -1.22782,0.06783 -1.81392,2.026956 -4.42957,3.188695 -7.17826,3.188695 -2.74783,0 -5.36435,-1.161739 -7.17826,-3.188695 -0.32087,-0.357391 -0.86957,-0.388696 -1.22783,-0.06783 -0.35826,0.32 -0.38783,0.869565 -0.0678,1.227826 2.14348,2.394782 5.23217,3.767826 8.47392,3.767826 3.2426,0 6.3313,-1.373913 8.47391,-3.767826 0.32,-0.358261 0.28956,-0.907826 -0.0678,-1.227826 z"
       id="path859" />
    <path
       d="m 122.09621,16.747552 c -11.02783,0 -20,8.972174 -20,20 0,11.027825 8.97217,19.999999 20,19.999999 11.02782,0 20,-8.972174 20,-19.999999 0,-11.027826 -8.97218,-20 -20,-20 z m 0,38.260869 c -10.06957,0 -18.26087,-8.191304 -18.26087,-18.260869 0,-10.069565 8.1913,-18.26087 18.26087,-18.26087 10.06956,0 18.26086,8.191305 18.26086,18.26087 0,10.069565 -8.1913,18.260869 -18.26086,18.260869 z"
       id="path861" />
    <path
       d="m 129.05273,30.660595 c -2.39739,0 -4.34783,1.950435 -4.34783,4.347826 0,0.48 0.38957,0.869565 0.86957,0.869565 0.48,0 0.86956,-0.389565 0.86956,-0.869565 0,-1.438261 1.17044,-2.608695 2.6087,-2.608695 1.43826,0 2.60869,1.170434 2.60869,2.608695 0,0.48 0.38957,0.869565 0.86957,0.869565 0.48,0 0.86956,-0.389565 0.86956,-0.869565 0,-2.397391 -1.95043,-4.347826 -4.34782,-4.347826 z"
       id="path863" />
    <path
       d="m 117.74838,35.008421 c 0,0.48 0.38957,0.869565 0.86956,0.869565 0.48,0 0.86957,-0.389565 0.86957,-0.869565 0,-2.397391 -1.95044,-4.347826 -4.34783,-4.347826 -2.39739,0 -4.34782,1.950435 -4.34782,4.347826 0,0.48 0.38956,0.869565 0.86956,0.869565 0.48,0 0.86957,-0.389565 0.86957,-0.869565 0,-1.438261 1.17043,-2.608695 2.60869,-2.608695 1.43826,0 2.6087,1.170434 2.6087,2.608695 z"
       id="path865" />
    <path
       d="m 3.445934,102.00919 -2.669823,-0.52776 0.186267,-1.42804 h 14.094178 l 0.434622,5.21546 -1.707444,0.2794 -0.341489,-1.1176 q -0.310445,-1.08655 -0.682978,-1.64535 -0.341489,-0.5588 -0.869244,-0.74507 -0.527756,-0.21731 -1.428045,-0.21731 H 6.1468 l -0.310444,7.8232 h 7.730067 l -0.155222,1.9558 H 5.743223 l -0.341489,8.382 h 4.873978 q 1.365955,0 2.017889,-0.52776 0.651933,-0.5588 1.179688,-2.11102 l 0.434623,-1.27282 h 1.707444 l -0.745067,5.71218 H 0 l 0.186267,-1.42805 2.545644,-0.40357 z" />
    <path
       d="m 25.754763,111.26043 q 0.217311,0.031 0.434622,0.031 0.217311,0 0.527755,0 4.780845,0 4.780845,-5.12234 0,-4.43935 -5.153378,-4.43935 H 24.76134 l -0.714022,18.22309 3.973689,0.43462 -0.124178,1.397 h -9.4996 l 0.155222,-1.36596 2.762956,-0.49671 0.776111,-17.91264 -2.700867,-0.52776 0.186267,-1.42804 h 7.047089 q 3.880556,0 5.8674,1.55222 2.017889,1.55222 2.017889,4.59458 0,2.01788 -0.962378,3.57011 -0.962377,1.52118 -2.700866,2.35938 -1.707445,0.8382 -4.004734,0.8382 -0.5588,0 -1.179689,-0.0931 z" />
    <path
       d="m 54.1289,119.92183 2.669823,0.40358 -0.217311,1.45909 h -4.718756 l -0.217311,-0.37254 1.086555,-10.95868 h -0.124177 q -0.962378,4.28413 -2.142067,6.86082 -1.148645,2.57669 -2.638778,3.75638 -1.490133,1.14864 -3.539067,1.14864 -2.856089,0 -4.222044,-1.86267 -1.365956,-1.86266 -1.179689,-5.46382 l 0.682978,-12.94553 -2.359378,-0.46567 0.186267,-1.42804 h 7.699022 l -0.186267,1.42804 -2.638778,0.52776 -0.651933,12.63509 q -0.124178,2.82504 0.589844,4.09786 0.714023,1.24178 2.483556,1.24178 1.428045,0 2.545645,-0.96238 1.1176,-0.96238 1.9558,-2.60773 0.869244,-1.64536 1.490133,-3.69429 0.620889,-2.07998 1.055511,-4.31518 0.434622,-2.2352 0.714022,-4.31518 l 0.2794,-2.07997 -2.576689,-0.52776 0.186267,-1.42804 h 7.202311 l -0.186266,1.42804 -2.266245,0.52776 z" />
    <path
       d="m 75.947327,104.7411 q 0,1.70744 -1.241778,3.16653 -1.241777,1.45909 -3.383844,2.26625 v 0.15522 q 5.494867,0.74506 5.494867,5.09129 0,3.01131 -2.5146,4.68771 -2.5146,1.6764 -6.985001,1.6764 h -7.2644 l 0.155223,-1.36596 2.762955,-0.49671 0.776111,-17.91264 -2.700866,-0.52776 0.186266,-1.42804 h 7.047089 q 3.880556,0 5.774267,1.14864 1.893711,1.14864 1.893711,3.53907 z m -8.444089,5.3086 q 5.432778,-0.8382 5.432778,-4.93607 0,-1.76953 -1.179689,-2.57669 -1.179689,-0.80715 -3.756378,-0.80715 H 66.416683 L 65.70266,120.1081 h 1.986845 q 6.115755,0 6.115755,-4.78085 0,-3.9116 -4.501444,-3.9116 -0.527756,0 -0.931333,0.031 -0.372534,0.031 -0.931334,0.15522 z" />
    <path
       d="m 92.391176,111.26043 q 0.217311,0.031 0.434623,0.031 0.217311,0 0.527755,0 4.780845,0 4.780845,-5.12234 0,-4.43935 -5.153378,-4.43935 h -1.583267 l -0.714022,18.22309 3.973689,0.43462 -0.124178,1.397 h -9.4996 l 0.155222,-1.36596 2.762956,-0.49671 0.776111,-17.91264 -2.700867,-0.52776 0.186267,-1.42804 h 7.047089 q 3.880555,0 5.8674,1.55222 2.017889,1.55222 2.017889,4.59458 0,2.01788 -0.96238,3.57011 -0.962376,1.52118 -2.700865,2.35938 -1.707444,0.8382 -4.004733,0.8382 -0.5588,0 -1.179689,-0.0931 z" />
    <path
       d="m 102.20074,107.13152 q 0.68297,-0.62089 1.76953,-1.05551 1.08656,-0.46567 1.86267,-0.46567 2.5146,0 2.26624,2.57669 l -0.77611,8.75453 q -0.12418,1.6764 0.0931,2.32834 0.24835,0.65193 0.99342,0.65193 0.5588,0 0.96238,-0.2794 0.40358,-0.31044 0.77611,-1.1176 0.40358,-0.80715 0.93133,-2.32833 l 3.50802,-10.18258 h 2.54565 l -0.49671,12.94553 q -0.031,0.68298 0.15522,0.96238 0.21731,0.2794 0.68298,0.2794 0.37253,0 0.8382,-0.15522 0.49671,-0.18627 0.99342,-0.40358 l 0.52776,1.55222 q -0.68298,0.40358 -1.76954,0.71403 -1.08655,0.31044 -1.80058,0.31044 -1.24177,0 -1.76953,-0.77611 -0.52775,-0.77611 -0.40358,-2.39042 l 0.77611,-8.382 -0.24835,-0.0311 -2.11102,6.79874 q -0.77611,2.54564 -1.89371,3.66324 -1.1176,1.1176 -2.85609,1.1176 -1.89371,0 -2.60774,-1.24178 -0.71402,-1.27282 -0.46566,-4.22204 l 0.68298,-7.91634 q 0.0621,-0.77611 -0.0931,-1.05551 -0.12418,-0.2794 -0.62089,-0.2794 -0.37254,0 -0.86925,0.21731 -0.46567,0.18627 -0.86924,0.52776 z" />
    <path
       d="m 128.49489,122.21912 q -0.99342,0 -2.14206,-0.21731 -1.1176,-0.18627 -2.14207,-0.49671 -0.99342,-0.34149 -1.6764,-0.71402 l 0.71402,-20.67561 -2.88713,-0.651929 0.18626,-1.49013 h 4.84294 l 0.49671,0.34149 -0.37253,10.275709 -0.8382,7.29544 0.24835,0.0621 1.14865,-4.28413 q 0.8382,-3.16654 2.04893,-4.59458 1.21073,-1.45909 3.29071,-1.45909 2.39042,0 3.47698,1.76953 1.1176,1.76954 1.1176,4.84294 0,3.22862 -0.96238,5.46382 -0.96238,2.2352 -2.66982,3.38385 -1.6764,1.14864 -3.88056,1.14864 z m 2.5146,-14.43567 q -0.74506,0 -1.27282,0.31045 -0.52776,0.2794 -1.02447,1.14864 -0.46566,0.86925 -1.02446,2.48356 -0.5588,1.61431 -1.30387,4.28413 l -1.02447,3.57011 q 0.5588,0.24836 1.30387,0.49671 0.77611,0.21731 1.80058,0.21731 1.45909,0 2.5146,-0.99342 1.05551,-1.02446 1.64535,-2.794 0.58985,-1.76953 0.58985,-4.06682 0,-1.17969 -0.15522,-2.2352 -0.12418,-1.08656 -0.58985,-1.73849 -0.46567,-0.68298 -1.45909,-0.68298 z" />
    <path
       d="m 140.74484,100.11547 -2.88713,-0.651929 0.18627,-1.49013 h 4.81189 l 0.49671,0.34149 -0.71403,20.675599 q -0.031,0.68298 0.12418,0.99342 0.15522,0.31044 0.65194,0.31044 0.71402,0 1.86266,-1.02446 l 0.77611,1.17969 q -0.49671,0.49671 -1.45909,1.14864 -0.93133,0.62089 -2.29728,0.62089 -1.45909,0 -1.9558,-0.77611 -0.46567,-0.80716 -0.43463,-2.04893 z" />
    <path
       d="m 148.73247,100.48801 q 0,-0.900289 0.5588,-1.490139 0.5588,-0.58984 1.45909,-0.58984 0.90029,0 1.42805,0.58984 0.5588,0.5588 0.5588,1.459089 0,0.90029 -0.5588,1.49014 -0.52776,0.58984 -1.42805,0.58984 -0.90029,0 -1.45909,-0.5588 -0.5588,-0.58984 -0.5588,-1.49013 z m 0.8382,8.382 q 0.0621,-0.71402 -0.12417,-0.99342 -0.15523,-0.2794 -0.65194,-0.2794 -0.40357,0 -0.86924,0.12417 -0.43462,0.0931 -1.08656,0.37254 l -0.49671,-1.397 q 0.58985,-0.34149 1.58327,-0.71403 0.99342,-0.37253 2.01789,-0.37253 1.27282,0 1.83162,0.8382 0.58984,0.8382 0.43462,2.66982 l -0.71402,9.87214 q -0.031,0.68298 0.0931,1.02446 0.12418,0.31045 0.62089,0.31045 0.68298,0 1.92476,-1.05551 l 0.77611,1.17969 q -0.49671,0.49671 -1.49013,1.14864 -0.96238,0.62089 -2.32834,0.62089 -1.45909,0 -1.9558,-0.8382 -0.46566,-0.86924 -0.37253,-1.98684 z" />
    <path
       d="m 164.30563,105.61034 q 2.01789,0 3.3528,1.05551 1.36595,1.05551 1.36595,2.88714 0,0.86924 -0.49671,1.42804 -0.49671,0.5588 -1.397,0.5588 -0.65193,0 -1.17969,-0.37253 -0.49671,-0.37254 -0.74506,-0.93134 l 0.65193,-0.74506 q 0.62089,-0.68298 0.49671,-1.14865 -0.12418,-0.49671 -0.71402,-0.74506 -0.58985,-0.24836 -1.397,-0.24836 -2.14207,0 -3.41489,1.83162 -1.27282,1.83163 -1.27282,5.52591 0,1.49014 0.40357,2.73192 0.43463,1.24177 1.27283,1.98684 0.86924,0.74507 2.14206,0.74507 2.14207,0 4.28414,-2.39043 l 1.08655,1.1176 q -0.37253,0.49672 -1.17969,1.30387 -0.77611,0.77611 -1.98684,1.397 -1.17969,0.62089 -2.76296,0.62089 -1.9558,0 -3.32175,-0.96238 -1.36596,-0.96238 -2.07998,-2.63878 -0.68298,-1.70744 -0.68298,-3.81846 0,-2.66982 0.93134,-4.7498 0.93133,-2.07998 2.63877,-3.25967 1.70745,-1.17969 4.00474,-1.17969 z" />
    <path
       d="m 184.41176,118.9905 q -0.031,0.77611 0.12418,1.05551 0.18626,0.2794 0.65193,0.2794 0.58985,0 1.52118,-0.77611 l 0.77611,1.17969 q -0.49671,0.49671 -1.45909,0.99342 -0.96238,0.49671 -1.92475,0.49671 -2.39043,0 -2.11103,-3.10444 l 0.52776,-5.83636 -0.21731,-0.031 -0.68298,2.54564 q -0.8382,3.10444 -1.98684,4.78084 -1.14865,1.64536 -3.38385,1.64536 -1.64536,0 -2.73191,-0.86924 -1.05551,-0.86925 -1.58327,-2.35938 -0.49671,-1.52118 -0.49671,-3.44594 0,-2.94922 0.93133,-5.18442 0.93134,-2.2352 2.54565,-3.47698 1.61431,-1.27282 3.66324,-1.27282 1.08656,0 2.01789,0.24836 0.96238,0.24835 1.52118,0.52775 l 2.17311,-0.71402 0.52776,0.24836 z m -7.76111,1.1176 q 0.71402,0 1.24178,-0.31045 0.5588,-0.31044 1.02446,-1.17969 0.46567,-0.86924 0.99343,-2.45251 0.5588,-1.61431 1.27282,-4.22204 l 1.02446,-3.69429 q -0.58984,-0.31045 -1.55222,-0.52776 -0.96238,-0.21731 -1.80058,-0.21731 -1.36595,0 -2.42146,1.02447 -1.02447,0.99342 -1.61431,2.794 -0.5588,1.76953 -0.5588,4.09787 0,2.45251 0.5588,3.57011 0.58984,1.1176 1.83162,1.1176 z" />
    <path
       d="m 188.44221,106.23123 2.35938,-0.24836 1.27282,-5.12233 h 1.70744 l -0.31044,5.18442 h 4.84293 l -0.12418,1.83163 h -4.81189 l -0.46566,9.65482 q -0.15522,2.63878 2.01789,2.63878 0.90029,0 1.64535,-0.46567 0.77611,-0.49671 1.49014,-1.17969 l 0.99342,1.08656 q -0.80716,1.08655 -2.04894,1.86266 -1.21073,0.74507 -2.73191,0.74507 -2.26624,0 -3.19757,-1.24178 -0.93134,-1.24178 -0.8382,-3.32175 l 0.43462,-9.779 h -2.48356 z" />
    <path
       d="m 202.63583,100.48801 q 0,-0.900289 0.5588,-1.490139 0.5588,-0.58984 1.45908,-0.58984 0.90029,0 1.42805,0.58984 0.5588,0.5588 0.5588,1.459089 0,0.90029 -0.5588,1.49014 -0.52776,0.58984 -1.42805,0.58984 -0.90028,0 -1.45908,-0.5588 -0.5588,-0.58984 -0.5588,-1.49013 z m 0.8382,8.382 q 0.0621,-0.71402 -0.12418,-0.99342 -0.15522,-0.2794 -0.65194,-0.2794 -0.40357,0 -0.86924,0.12417 -0.43462,0.0931 -1.08656,0.37254 l -0.49671,-1.397 q 0.58985,-0.34149 1.58327,-0.71403 0.99342,-0.37253 2.01789,-0.37253 1.27282,0 1.83162,0.8382 0.58985,0.8382 0.43462,2.66982 l -0.71402,9.87214 q -0.031,0.68298 0.0931,1.02446 0.12418,0.31045 0.62089,0.31045 0.68298,0 1.92476,-1.05551 l 0.77611,1.17969 q -0.49671,0.49671 -1.49013,1.14864 -0.96238,0.62089 -2.32834,0.62089 -1.45909,0 -1.9558,-0.8382 -0.46566,-0.86924 -0.37253,-1.98684 z" />
    <path
       d="m 217.06033,122.21912 q -3.0734,0 -4.7498,-2.11102 -1.64535,-2.11102 -1.64535,-5.61905 0,-1.73849 0.40358,-3.32175 0.40357,-1.61431 1.24177,-2.85609 0.86925,-1.24178 2.26625,-1.9558 1.397,-0.74507 3.38384,-0.74507 3.0734,0 4.7498,2.11102 1.70745,2.07998 1.70745,5.55696 0,2.35938 -0.74507,4.40831 -0.74507,2.01789 -2.35938,3.29071 -1.61431,1.24178 -4.25309,1.24178 z m 0.18627,-1.83162 q 1.6764,0 2.57669,-0.99342 0.93133,-1.02447 1.30387,-2.63878 0.37253,-1.64536 0.37253,-3.50802 0,-1.70745 -0.37253,-3.01132 -0.34149,-1.30386 -1.17969,-2.04893 -0.80716,-0.77611 -2.2352,-0.77611 -1.64536,0 -2.54565,1.02447 -0.90029,1.02446 -1.24178,2.66982 -0.31044,1.61431 -0.31044,3.50802 0,2.57669 0.86924,4.191 0.86925,1.58327 2.76296,1.58327 z" />
    <path
       d="m 244.10198,120.69794 q -0.34149,0.31045 -0.96238,0.68298 -0.62088,0.34149 -1.33491,0.58984 -0.68297,0.24836 -1.33491,0.24836 -2.5146,0 -2.26624,-2.57669 l 0.77611,-8.84767 q 0.15522,-1.64535 -0.15522,-2.26624 -0.2794,-0.62089 -1.05551,-0.62089 -0.93134,0 -1.45909,0.77611 -0.49671,0.77611 -1.21074,2.85609 l -3.6322,10.24467 h -2.54564 l 0.49671,-12.91449 q 0.031,-0.68298 -0.18627,-0.96238 -0.18626,-0.2794 -0.65193,-0.2794 -0.52776,0 -1.83162,0.5588 l -0.52776,-1.55222 q 0.34149,-0.18627 0.93134,-0.43462 0.62088,-0.24836 1.30386,-0.40358 0.71402,-0.18627 1.33491,-0.18627 1.33491,0 1.83163,0.80716 0.49671,0.80715 0.34148,2.35937 l -0.77611,8.28887 0.21731,0.0621 2.26625,-6.73664 q 0.8382,-2.48356 1.89371,-3.6322 1.08656,-1.14865 2.85609,-1.14865 2.07998,0 2.76295,1.33491 0.68298,1.33491 0.43463,4.03578 l -0.68298,8.00947 q -0.0621,0.68298 0.0621,1.02446 0.15522,0.31045 0.65193,0.31045 0.80716,0 1.73849,-0.74507 z" />
  </g>
</svg>
